HIERARCHY
ROOT Hips
{
	OFFSET -0.001795 -0.223333 0.028219
	CHANNELS 6 Xposition Yposition Zposition Zrotation Yrotation Xrotation 
	JOINT LeftUpLeg
	{
		OFFSET 0.069520 -0.091406 -0.006815
		CHANNELS 3 Zrotation Yrotation Xrotation
		JOINT LeftLeg
		{
			OFFSET 0.034277 -0.375199 -0.004496
			CHANNELS 3 Zrotation Yrotation Xrotation
			JOINT LeftFoot
			{
				OFFSET -0.013596 -0.397961 -0.043693
				CHANNELS 3 Zrotation Yrotation Xrotation
				JOINT LeftToe
				{
					OFFSET 0.026358 -0.055791 0.119288
					CHANNELS 3 Zrotation Yrotation Xrotation
					End Site
					{
						OFFSET 0.000000 0.000000 0.000000
					}
				}
			}
		}
	}
	JOINT RightUpLeg
	{
		OFFSET -0.067670 -0.090522 -0.004320
		CHANNELS 3 Zrotation Yrotation Xrotation
		JOINT RightLeg
		{
			OFFSET -0.038290 -0.382569 -0.008850
			CHANNELS 3 Zrotation Yrotation Xrotation
			JOINT RightFoot
			{
				OFFSET 0.015774 -0.398415 -0.042312
				CHANNELS 3 Zrotation Yrotation Xrotation
				JOINT RightToe
				{
					OFFSET -0.025372 -0.048144 0.123348
					CHANNELS 3 Zrotation Yrotation Xrotation
					End Site
					{
						OFFSET 0.000000 0.000000 0.000000
					}
				}
			}
		}
	}
	JOINT Spine
	{
		OFFSET -0.002533 0.108963 -0.026696
		CHANNELS 3 Zrotation Yrotation Xrotation
		JOINT Spine1
		{
			OFFSET 0.005487 0.135180 0.001092
			CHANNELS 3 Zrotation Yrotation Xrotation
			JOINT Spine2
			{
				OFFSET 0.001457 0.052922 0.025425
				CHANNELS 3 Zrotation Yrotation Xrotation
				JOINT Neck
				{
					OFFSET -0.002778 0.213870 -0.042857
					CHANNELS 3 Zrotation Yrotation Xrotation
					JOINT Head
					{
						OFFSET 0.005152 0.064970 0.051349
						CHANNELS 3 Zrotation Yrotation Xrotation
						End Site
						{
							OFFSET 0.000000 0.000000 0.000000
						}
					}
				}
				JOINT LeftShoulder
				{
					OFFSET 0.078845 0.121749 -0.034090
					CHANNELS 3 Zrotation Yrotation Xrotation
					JOINT LeftArm
					{
						OFFSET 0.090977 0.030469 -0.008868
						CHANNELS 3 Zrotation Yrotation Xrotation
						JOINT LeftForeArm
						{
							OFFSET 0.259612 -0.012772 -0.027456
							CHANNELS 3 Zrotation Yrotation Xrotation
							JOINT LeftHand
							{
								OFFSET 0.249234 0.008986 -0.001171
								CHANNELS 3 Zrotation Yrotation Xrotation
								End Site
								{
									OFFSET 0.000000 0.000000 0.000000
								}
							}
						}
					}
				}
				JOINT RightShoulder
				{
					OFFSET -0.081759 0.118833 -0.038615
					CHANNELS 3 Zrotation Yrotation Xrotation
					JOINT RightArm
					{
						OFFSET -0.096012 0.032551 -0.009143
						CHANNELS 3 Zrotation Yrotation Xrotation
						JOINT RightForeArm
						{
							OFFSET -0.253742 -0.013329 -0.021401
							CHANNELS 3 Zrotation Yrotation Xrotation
							JOINT RightHand
							{
								OFFSET -0.255298 0.007772 -0.005559
								CHANNELS 3 Zrotation Yrotation Xrotation
								End Site
								{
									OFFSET 0.000000 0.000000 0.000000
								}
							}
						}
					}
				}
			}
		}
	}
}
MOTION
Frames: 7
Frame Time: 0.050000
0.000000 0.944015 0.000000 -1.267624 3.140061 6.919501 4.609918 -0.326640 -3.220185 1.997255 0.172022 -7.471665 1.211785 6.585905 10.830381 0.000000 0.000000 0.000000 -4.054336 0.548789 -6.247372 -1.175318 0.044952 -1.677014 -1.924644 -7.502099 8.986375 0.000000 0.000000 0.000000 1.392904 0.232355 -5.523220 0.615330 -0.134761 -3.735578 -0.645464 -0.471227 3.638775 -0.493590 1.068158 -8.706665 0.000000 0.000000 0.000000 -15.180125 3.033164 -3.210771 -57.195864 -7.430473 -3.137516 -12.206278 -17.328166 2.439376 0.000000 0.000000 0.000000 12.476283 -3.041281 -2.376564 61.451844 6.486424 -2.370786 8.115639 17.212851 1.664994 0.000000 0.000000 0.000000 
0.000299 0.943003 0.000425 -1.499269 1.845066 7.416779 3.815556 -0.288652 -2.736470 3.700195 0.186748 -8.699920 1.574608 7.024727 10.742218 0.000000 0.000000 0.000000 -4.323190 0.587026 -6.684280 -0.692733 -0.001762 -1.658403 -0.860615 -5.322001 8.524868 0.000000 0.000000 0.000000 2.077813 0.271133 -5.971939 -0.451138 0.315680 -3.881749 0.177698 -0.182985 3.352573 -1.925955 2.014508 -8.935636 0.000000 0.000000 0.000000 -16.045148 4.388591 -3.906021 -56.838224 -7.130666 -3.215674 -13.929537 -17.833631 2.802603 0.000000 0.000000 0.000000 11.568192 -3.570841 -2.613170 62.469051 5.736111 -2.787593 8.613336 18.173697 1.819558 0.000000 0.000000 0.000000 
0.000481 0.943011 0.000443 -1.182714 2.527174 7.425782 3.538222 -0.289908 -2.758303 3.978954 0.147784 -8.216334 0.867214 5.812757 10.389139 0.000000 0.000000 0.000000 -4.702722 0.577343 -6.788918 -0.631142 0.010484 -1.285223 -1.643884 -6.797635 8.249207 0.000000 0.000000 0.000000 1.677474 0.239512 -5.576328 -0.127233 0.232533 -5.464483 -0.467627 -0.801405 4.004029 -2.558356 2.456633 -9.217797 0.000000 0.000000 0.000000 -15.546920 3.928702 -3.571061 -57.340687 -7.133047 -3.311199 -13.572858 -17.848617 2.757746 0.000000 0.000000 0.000000 12.928307 -3.102847 -2.559658 61.230112 5.348513 -3.029877 7.960694 18.625091 1.781724 0.000000 0.000000 0.000000 
0.000572 0.942871 0.000400 -1.444884 2.284302 7.560459 3.349527 -0.298026 -2.928690 4.623998 0.132117 -8.283357 0.831161 5.674648 10.219133 0.000000 0.000000 0.000000 -4.740868 0.620820 -7.480159 -0.369471 0.000684 -0.917511 -1.513191 -6.522184 8.149233 0.000000 0.000000 0.000000 1.910677 0.237091 -5.460002 -0.950950 0.560156 -5.099938 0.508194 -1.623001 2.842410 -3.765002 3.162593 -8.405870 0.000000 0.000000 0.000000 -15.073291 4.920170 -3.798505 -58.550795 -7.551473 -3.027523 -13.152807 -17.837109 2.724951 0.000000 0.000000 0.000000 11.936189 -3.171857 -2.665637 61.285585 5.161021 -3.064188 9.008762 18.850885 1.905286 0.000000 0.000000 0.000000 
0.000526 0.943192 0.000271 -1.307554 2.820115 7.413897 3.210742 -0.288643 -2.785859 4.663984 0.145692 -8.482838 0.351212 4.987732 10.410707 0.000000 0.000000 0.000000 -4.939257 0.595512 -7.275783 -0.417937 -0.000360 -1.067280 -1.851592 -7.228500 8.365718 0.000000 0.000000 0.000000 1.774743 0.219721 -5.200869 -0.717505 0.472038 -5.173083 0.171705 -1.955327 2.835323 -4.156078 3.440474 -9.012086 0.000000 0.000000 0.000000 -14.875496 4.536214 -3.587976 -58.717631 -8.039970 -2.792342 -13.516383 -17.634181 2.746818 0.000000 0.000000 0.000000 12.313588 -3.411222 -2.823483 60.981415 5.344436 -2.951142 9.218414 18.957078 1.950146 0.000000 0.000000 0.000000 
0.000524 0.943630 0.000187 -1.318483 2.724902 7.562488 3.116392 -0.291043 -2.835386 5.052960 0.141138 -8.572003 0.499276 5.220794 10.390922 0.000000 0.000000 0.000000 -5.005359 0.609340 -7.517309 -0.564761 0.010347 -1.149494 -1.785261 -7.220210 8.837765 0.000000 0.000000 0.000000 1.645774 0.220808 -5.251313 -0.764546 0.494298 -5.337919 0.442884 -2.196092 2.795414 -4.416075 3.592128 -8.823719 0.000000 0.000000 0.000000 -15.040506 4.927186 -3.744229 -59.067342 -8.184159 -2.718329 -13.034580 -17.667743 2.690363 0.000000 0.000000 0.000000 12.111607 -3.267183 -2.780286 61.069789 5.388993 -2.945545 9.133364 18.933383 1.921153 0.000000 0.000000 0.000000 
0.000483 0.943925 0.000170 -1.278712 2.932688 7.456684 2.956290 -0.280616 -2.707230 5.116917 0.149065 -8.702396 0.343832 5.113053 10.774411 0.000000 0.000000 0.000000 -4.940854 0.601410 -7.405354 -0.694885 0.022596 -1.167043 -1.778525 -7.167186 8.771569 0.000000 0.000000 0.000000 1.492637 0.207501 -5.027691 -0.661725 0.454383 -5.321388 0.382510 -2.523098 2.730214 -4.279182 3.488926 -9.004253 0.000000 0.000000 0.000000 -15.175231 5.033912 -3.783466 -58.859392 -7.898699 -2.844985 -13.588376 -17.747089 2.796511 0.000000 0.000000 0.000000 12.431178 -3.210365 -2.831065 60.730598 5.185281 -3.036002 9.384298 18.939747 1.950610 0.000000 0.000000 0.000000 
